<svg width="40" height="40" viewBox="0 0 40 40" fill="none" xmlns="http://www.w3.org/2000/svg">
    <path fill-rule="evenodd" clip-rule="evenodd"
        d="M27.6446 19.3617C27.9765 19.3617 28.2949 19.4936 28.5296 19.7283C28.7643 19.963 28.8961 20.2813 28.8961 20.6133V29.3742C28.8961 29.5402 28.8302 29.6994 28.7129 29.8167C28.5955 29.9341 28.4363 30 28.2704 30H25.1414C24.9755 30 24.8163 29.9341 24.6989 29.8167C24.5816 29.6994 24.5157 29.5402 24.5157 29.3742V20.6133C24.5157 20.2813 24.6475 19.963 24.8822 19.7283C25.117 19.4936 25.4353 19.3617 25.7672 19.3617H27.6446ZM22.2716 21.6045C22.0367 21.3702 21.7185 21.2388 21.3867 21.239H19.5094C19.1775 21.239 18.8591 21.3709 18.6244 21.6056C18.3897 21.8403 18.2578 22.1587 18.2578 22.4906V29.3742C18.2578 29.5402 18.3238 29.6994 18.4411 29.8167C18.5585 29.9341 18.7176 30 18.8836 30H22.0125C22.1785 30 22.3377 29.9341 22.455 29.8167C22.5724 29.6994 22.6383 29.5402 22.6383 29.3742V22.4906C22.6384 22.3261 22.6061 22.1631 22.5432 22.011C22.4803 21.859 22.388 21.7208 22.2716 21.6045ZM15.1289 23.1164C15.4609 23.1164 15.7792 23.2483 16.0139 23.483C16.2486 23.7177 16.3805 24.036 16.3805 24.368V29.3742C16.3805 29.5402 16.3146 29.6994 16.1972 29.8167C16.0798 29.9341 15.9207 30 15.7547 30H12.6258C12.4598 30 12.3006 29.9341 12.1833 29.8167C12.0659 29.6994 12 29.5402 12 29.3742V24.368C12 24.036 12.1319 23.7177 12.3666 23.483C12.6013 23.2483 12.9196 23.1164 13.2516 23.1164H15.1289Z"
        fill="black" />
    <path
        d="M20.134 11.8773C20.6524 11.8773 21.0727 11.4571 21.0727 10.9387C21.0727 10.4203 20.6524 10 20.134 10C19.6156 10 19.1953 10.4203 19.1953 10.9387C19.1953 11.4571 19.6156 11.8773 20.134 11.8773Z"
        fill="black" />
    <path
        d="M19.0742 14.0437C19.1844 14.241 19.3426 14.3928 19.5271 14.4785C19.7117 14.5641 19.9137 14.5795 20.1058 14.5225L21.6985 14.0443L21.4665 12.9251L19.8738 13.4033L19.2115 12.211C19.07 11.9563 18.8504 11.7792 18.6006 11.7183L16.7534 11.2741C16.5468 11.2243 16.3322 11.2576 16.1429 11.3688C15.9535 11.4801 15.8 11.6631 15.7059 11.8896L14.9096 13.8025L15.7688 14.3188L16.5651 12.4054L17.5099 12.6326L15.0671 17.5228H12.9375V18.6765H15.0671C15.4023 18.6765 15.7179 18.4619 15.8908 18.1164L16.812 16.2727L19.2946 16.8692L20.1668 20.0125L21.0774 19.6474L20.2057 16.5046C20.1519 16.3117 20.0567 16.1391 19.9298 16.0044C19.8028 15.8697 19.6485 15.7776 19.4824 15.7374L18.0228 15.3872L18.8739 13.6831L19.0742 14.0437Z"
        fill="black" />
</svg>