<svg width="40" height="40" viewBox="0 0 40 40" fill="none" xmlns="http://www.w3.org/2000/svg">
    <g clip-path="url(#clip0_1468_6425)">
        <path fill-rule="evenodd" clip-rule="evenodd"
            d="M25.9732 11.9278C25.9732 11.4165 26.1763 10.9262 26.5378 10.5646C26.8994 10.2031 27.3897 10 27.901 10C28.4123 10 28.9026 10.2031 29.2641 10.5646C29.6257 10.9262 29.8288 11.4165 29.8288 11.9278V15.2326C29.8288 16.1045 29.2504 16.8409 28.4562 17.0794C28.461 17.66 28.4674 18.2218 28.4755 18.7649C28.503 20.8149 28.5261 22.5929 28.3725 24.0548C28.1522 26.15 27.5512 27.7974 25.9181 28.7597C24.0636 29.853 21.3988 30.183 19.2143 29.9081C18.1182 29.7699 17.0904 29.473 16.3199 29.0026C15.7608 28.6611 15.2976 28.1984 15.0839 27.6129C13.9355 27.5617 12.7926 27.3529 11.8892 26.9784C10.9171 26.5752 10 25.8768 10 24.7835V13.9228H10.0017L10 13.8556C10 12.3348 12.4659 11.1016 15.508 11.1016C18.5501 11.1016 21.016 12.3348 21.016 13.8556C21.016 13.878 21.0154 13.9004 21.0143 13.9228H21.016V17.1995C21.2466 17.2325 21.4737 17.2863 21.6946 17.3603C22.5161 17.6375 23.2203 18.1833 23.6935 18.9098C24.1668 19.6362 24.3815 20.5009 24.303 21.3643C24.2245 22.2278 23.8574 23.0396 23.261 23.6688C22.6645 24.2981 21.8735 24.708 21.0154 24.8325C20.9901 25.9423 20.1028 26.6446 19.124 27.0434C18.3259 27.3684 17.3449 27.5501 16.3403 27.6063C16.473 27.7638 16.6553 27.9164 16.8944 28.0624C17.4854 28.4242 18.3457 28.6881 19.352 28.8148C21.3724 29.0692 23.7727 28.7454 25.3585 27.8107C26.5389 27.1155 27.0693 25.9121 27.2769 23.9396C27.4234 22.5461 27.4014 20.87 27.3744 18.8591C27.3663 18.2939 27.3596 17.7011 27.354 17.0816C26.9552 16.9636 26.6052 16.7198 26.3564 16.3866C26.1075 16.0533 25.9731 15.6485 25.9732 15.2326V11.9278ZM18.9103 14.8178C19.7899 14.3778 19.9144 13.974 19.9144 13.8556C19.9144 13.7372 19.7899 13.3334 18.9103 12.8934C18.0962 12.4869 16.8949 12.2032 15.508 12.2032C14.1211 12.2032 12.9192 12.4869 12.1057 12.8934C11.2261 13.3334 11.1016 13.7372 11.1016 13.8556C11.1016 13.974 11.2261 14.3778 12.1057 14.8178C12.9198 15.2243 14.1211 15.508 15.508 15.508C16.8949 15.508 18.0968 15.2243 18.9103 14.8178ZM15.508 16.6096C17.3097 16.6096 18.9097 16.1772 19.9144 15.508V17.199C19.6838 17.2321 19.4567 17.2861 19.2358 17.3603C18.4143 17.6374 17.7101 18.183 17.2367 18.9094C16.7634 19.6357 16.5485 20.5003 16.6268 21.3637C16.7051 22.2271 17.072 23.0389 17.6682 23.6683C18.2645 24.2976 19.0554 24.7077 19.9133 24.8325C19.8885 25.261 19.5421 25.6835 18.7087 26.0228C17.8687 26.3648 16.7082 26.5367 15.5141 26.5234C15.345 26.5215 15.1761 26.5158 15.0073 26.5064V16.5986C15.1726 16.6059 15.3395 16.6096 15.508 16.6096ZM20.4652 18.5374L19.639 21.2914L20.4652 22.393L21.2914 21.2914L20.4652 18.5374Z"
            fill="black" />
    </g>
    <defs>
        <clipPath id="clip0_1468_6425">
            <rect width="20" height="20" fill="black" transform="translate(10 10)" />
        </clipPath>
    </defs>
</svg>