<svg width="40" height="40" viewBox="0 0 40 40" fill="none" xmlns="http://www.w3.org/2000/svg">
    <path
        d="M15.8582 13.295C19.1104 13.2977 18.8113 17.674 18.8102 19.4246C18.8079 21.6586 19.3622 26.168 17.6205 27.8845C15.8448 29.6335 12.2963 30.5063 10.5234 29.0461C8.75056 27.5853 11.7187 13.2917 15.8582 13.295ZM24.1644 13.3016C20.9122 13.2988 21.204 17.6756 21.2024 19.4262C21.2007 21.6608 20.6386 26.1691 22.3782 27.8884C24.1505 29.6406 27.6979 30.5184 29.473 29.0615C31.2481 27.604 28.3039 13.3049 24.1644 13.3016Z"
        fill="black" />
    <path fill-rule="evenodd" clip-rule="evenodd"
        d="M19.4561 10H20.568L20.5619 17.9715C20.5608 19.127 20.0399 19.7892 19.4506 20.1291C19.1154 20.3201 18.7385 20.428 18.352 20.4437H18.3376V19.3437H18.332H18.3348C18.3876 19.3406 18.4402 19.3339 18.4921 19.3239C18.6056 19.3019 18.7506 19.2596 18.8913 19.1787C19.1359 19.0379 19.4489 18.7388 19.45 17.9704L19.4561 10Z"
        fill="black" />
    <path fill-rule="evenodd" clip-rule="evenodd"
        d="M20.5711 10H19.4592L19.4531 17.9704C19.452 19.1259 19.9713 19.7892 20.56 20.1302C20.8949 20.3215 21.2716 20.4298 21.658 20.4459H21.6735L21.6746 19.8959C21.6746 19.3459 21.6757 19.3459 21.6757 19.3459H21.6808H21.678C21.673 19.3459 21.6635 19.3459 21.6496 19.3443C21.4638 19.3281 21.2838 19.2722 21.122 19.1804C20.8774 19.039 20.5644 18.7399 20.5655 17.9715L20.5711 10Z"
        fill="black" />
</svg>