<svg width="40" height="40" viewBox="0 0 40 40" fill="none" xmlns="http://www.w3.org/2000/svg">
    <path fill-rule="evenodd" clip-rule="evenodd"
        d="M28.6603 16.9855L26.609 10L24.4915 12.2208C23.6256 11.7053 22.6774 11.3256 21.6787 11.1024C19.4582 10.606 17.1335 10.9156 15.1202 11.9757C13.1069 13.0359 11.5363 14.7775 10.6892 16.8893C9.8421 19.0011 9.77366 21.3453 10.4962 23.5029C11.2187 25.6605 12.685 27.4908 14.633 28.6666C16.581 29.8424 18.8837 30.287 21.1294 29.921C23.3751 29.555 25.4174 28.4022 26.8913 26.6687C28.3651 24.9352 29.1744 22.734 29.1744 20.4587C29.1744 19.9064 28.7267 19.4587 28.1744 19.4587C27.6221 19.4587 27.1744 19.9064 27.1744 20.4587C27.1744 22.2593 26.5339 24.0013 25.3676 25.3732C24.2012 26.7451 22.5849 27.6574 20.8077 27.947C19.0304 28.2367 17.2081 27.8848 15.6665 26.9543C14.1249 26.0238 12.9644 24.5753 12.3927 22.8678C11.8209 21.1603 11.875 19.3051 12.5454 17.6339C13.2158 15.9627 14.4588 14.5844 16.0521 13.7454C17.6454 12.9064 19.4851 12.6614 21.2424 13.0542C21.8807 13.1969 22.493 13.4204 23.066 13.716L21.585 15.2692L28.6603 16.9855Z"
        fill="black" />
    <path
        d="M15.9234 21.0357C15.6723 20.9359 15.2548 20.7791 15.1673 20.3451C15.0799 19.9112 15.2616 19.0901 15.5236 18.4138C15.9096 17.417 16.4958 16.7275 17.1738 16.4723C17.5733 16.3221 17.9766 16.3343 18.3397 16.5088C18.6508 16.6579 19.0286 17.0315 19.0625 17.9652C19.0837 18.5502 18.959 19.2392 18.7205 19.8552C18.4326 20.5988 18.1156 21.3867 17.6031 21.4389C17.3139 21.4685 17.1379 21.435 16.7441 21.3175C16.4203 21.2208 16.1747 21.1353 15.9234 21.0357ZM15.1728 21.3849L17.3714 22.1139C17.5572 22.1755 17.6377 22.3437 17.5414 22.6528C17.2255 23.6675 16.3152 24.5743 15.4065 24.0497C14.5461 23.5529 14.5389 22.241 14.7497 21.6598C14.845 21.396 14.9714 21.3179 15.1728 21.3849ZM20.7963 21.3478C20.4975 21.0658 20.3806 20.9298 20.2617 20.6646C20.0507 20.1947 20.5745 19.5262 21.0745 18.905C21.4888 18.3905 22.0235 17.9373 22.5403 17.6638C23.3655 17.2261 23.878 17.3666 24.163 17.5617C24.4952 17.7888 24.7078 18.1317 24.7775 18.5528C24.8959 19.2678 24.5918 20.1202 23.9212 20.9527C23.4663 21.5176 22.8482 22.0836 22.4258 22.2263C22.0035 22.3691 21.6624 22.0849 21.4498 21.9169C21.2372 21.7489 21.0419 21.5796 20.7963 21.3478ZM21.5236 22.742L19.7929 21.2025C19.6467 21.0724 19.4608 21.0868 19.2412 21.3247C18.5206 22.1057 18.1905 23.3475 19.0991 23.8721C19.9595 24.3689 21.0992 23.7191 21.4972 23.246C21.6778 23.0315 21.6823 22.883 21.5236 22.742Z"
        fill="black" />
</svg>