<svg width="40" height="40" viewBox="0 0 40 40" fill="none" xmlns="http://www.w3.org/2000/svg">
    <path fill-rule="evenodd" clip-rule="evenodd"
        d="M18.8135 18.7192C18.8358 16.7792 18.8793 13.0026 15.8581 13C11.7187 12.9967 8.75056 27.2903 10.5234 28.7511C12.2963 30.2113 15.8448 29.3385 17.6205 27.5895C18.251 26.9681 18.5806 25.9806 18.7447 24.8676C18.0048 24.4371 17.506 23.6379 17.5001 22.7216C17.5 22.7161 17.5 22.7106 17.5 22.7051C17.5 22.7051 17.5 22.7051 17.5 22.7051C17.5 21.741 18.0456 20.9045 18.8449 20.4873C18.8265 19.983 18.8098 19.5213 18.8101 19.1296C18.8102 19.0052 18.8118 18.8676 18.8135 18.7192ZM22.5 22.7051C22.5 21.745 21.9589 20.9114 21.1651 20.4926C21.1844 19.9869 21.202 19.524 21.2023 19.1313C21.2024 19.007 21.2011 18.8694 21.1996 18.7212C21.1804 16.7812 21.143 13.004 24.1643 13.0066C28.3038 13.0099 31.248 27.309 29.4729 28.7665C27.6978 30.2234 24.1504 29.3456 22.3781 27.5934C21.7477 26.9703 21.4196 25.981 21.2575 24.8663C21.9916 24.4382 22.4878 23.6469 22.4998 22.7387"
        fill="black" />
    <g clip-path="url(#clip0_1468_6413)">
        <path
            d="M20.0013 20.6179C21.1519 20.6179 22.0846 21.5506 22.0846 22.7012C22.0846 23.8518 21.1519 24.7845 20.0013 24.7845C18.8507 24.7845 17.918 23.8518 17.918 22.7012C17.918 21.5506 18.8507 20.6179 20.0013 20.6179ZM20.0013 21.0345C19.5593 21.0345 19.1354 21.2101 18.8228 21.5227C18.5102 21.8352 18.3346 22.2592 18.3346 22.7012C18.3346 23.1432 18.5102 23.5671 18.8228 23.8797C19.1354 24.1923 19.5593 24.3679 20.0013 24.3679C20.4433 24.3679 20.8673 24.1923 21.1798 23.8797C21.4924 23.5671 21.668 23.1432 21.668 22.7012C21.668 22.2592 21.4924 21.8352 21.1798 21.5227C20.8673 21.2101 20.4433 21.0345 20.0013 21.0345ZM20.0013 21.4512C20.0523 21.4512 20.1016 21.4699 20.1397 21.5038C20.1778 21.5377 20.2022 21.5845 20.2082 21.6352L20.2096 21.6595V22.6149L20.7736 23.1789C20.811 23.2164 20.8327 23.2667 20.8343 23.3196C20.8359 23.3725 20.8173 23.424 20.7823 23.4638C20.7473 23.5035 20.6985 23.5283 20.6458 23.5334C20.5931 23.5384 20.5405 23.5232 20.4986 23.4908L20.479 23.4735L19.854 22.8485C19.8216 22.8161 19.8008 22.7739 19.7948 22.7285L19.793 22.7012V21.6595C19.793 21.6043 19.8149 21.5513 19.854 21.5122C19.8931 21.4731 19.946 21.4512 20.0013 21.4512Z"
            fill="black" />
    </g>
    <path fill-rule="evenodd" clip-rule="evenodd"
        d="M19.4561 10H20.568L20.5619 17.9715C20.5608 19.127 20.0399 19.7892 19.4506 20.1291C19.1154 20.3201 18.7385 20.428 18.352 20.4437H18.3376V19.3437H18.332H18.3348C18.3876 19.3406 18.4402 19.3339 18.4921 19.3239C18.6056 19.3019 18.7506 19.2596 18.8913 19.1787C19.1359 19.0379 19.4489 18.7388 19.45 17.9704L19.4561 10Z"
        fill="black" />
    <path fill-rule="evenodd" clip-rule="evenodd"
        d="M20.5711 10H19.4592L19.4531 17.9704C19.452 19.1259 19.9713 19.7892 20.56 20.1302C20.8949 20.3215 21.2716 20.4298 21.658 20.4459H21.6735L21.6746 19.8959C21.6746 19.3459 21.6757 19.3459 21.6757 19.3459H21.6808H21.678C21.673 19.3459 21.6635 19.3459 21.6496 19.3443C21.4638 19.3281 21.2838 19.2722 21.122 19.1804C20.8774 19.039 20.5644 18.7399 20.5655 17.9715L20.5711 10Z"
        fill="black" />
    <defs>
        <clipPath id="clip0_1468_6413">
            <rect width="5" height="5" fill="black" transform="translate(17.5 20)" />
        </clipPath>
    </defs>
</svg>