<svg width="40" height="40" viewBox="0 0 40 40" fill="none" xmlns="http://www.w3.org/2000/svg">
    <path fill-rule="evenodd" clip-rule="evenodd"
        d="M19.4091 27.7342C15.8695 27.7342 13 24.847 13 21.2854C13 16.4488 19.4091 9.99994 19.4091 9.99994C19.4091 9.99994 25.8181 16.4488 25.8181 21.2854C25.8181 21.3828 25.816 21.4798 25.8117 21.5762C21.1627 20.9111 19.3893 22.4629 19.8326 27.7203C19.6926 27.7295 19.5514 27.7342 19.4091 27.7342ZM22.7148 22.4628C21.7354 22.4628 20.9414 23.2568 20.9414 24.2363V26.8964C20.9414 27.8758 21.7354 28.6698 22.7148 28.6698C23.6943 28.6698 24.4883 27.8758 24.4883 26.8964V24.2363C24.4883 23.2568 23.6943 22.4628 22.7148 22.4628ZM21.8281 24.2363C21.8281 23.7465 22.2251 23.3495 22.7148 23.3495C23.2046 23.3495 23.6016 23.7465 23.6016 24.2363V26.8964C23.6016 27.3861 23.2046 27.7831 22.7148 27.7831C22.2251 27.7831 21.8281 27.3861 21.8281 26.8964V24.2363ZM26.2617 26.453H24.9316V25.5663H26.2617C26.9963 25.5663 27.5918 26.1618 27.5918 26.8964C27.5918 27.631 26.9963 28.2265 26.2617 28.2265C26.0168 28.2265 25.8183 28.425 25.8183 28.6698V29.1132H27.5918V29.9999H25.375C25.1301 29.9999 24.9316 29.8014 24.9316 29.5565V28.6698C24.9316 27.9352 25.5271 27.3398 26.2617 27.3398C26.5066 27.3398 26.7051 27.1412 26.7051 26.8964C26.7051 26.6515 26.5066 26.453 26.2617 26.453Z"
        fill="black" />
</svg>