<svg width="40" height="40" viewBox="0 0 40 40" fill="none" xmlns="http://www.w3.org/2000/svg">
    <path
        d="M14.4388 24.2627C13.9042 24.3411 13.0242 24.4869 12.4388 23.8227C11.8534 23.1585 11.3471 21.5547 11.1246 20.1214C10.7962 18.0088 11.1221 16.2283 12.0413 15.1083C12.583 14.4487 13.2938 14.0666 14.0972 14.0058C14.7851 13.9528 15.8131 14.222 16.8056 15.8054C17.4273 16.7975 17.9002 18.1155 18.1031 19.4209C18.3481 20.9968 18.5869 22.6785 17.7514 23.2815C17.2802 23.6219 16.9418 23.7398 16.1422 23.9302C15.4847 24.0865 14.9739 24.184 14.4388 24.2627ZM13.488 25.6182L18.0252 24.6823C18.4086 24.6032 18.7161 24.814 18.8586 25.4457C19.3261 27.5191 18.6561 30 16.5577 30C14.5705 30 13.2463 27.7349 13.0301 26.5174C12.9313 25.9653 13.0721 25.7036 13.488 25.6182ZM23.1912 19.9305C22.3916 19.7409 22.0532 19.6222 21.582 19.2818C20.7465 18.6788 20.9853 16.9971 21.2303 15.4212C21.4332 14.1158 21.9062 12.7961 22.5278 11.8057C23.5195 10.2223 24.5475 9.95314 25.2363 10.0061C26.0388 10.0673 26.7501 10.4486 27.2917 11.1082C28.2118 12.2282 28.5376 14.0087 28.2084 16.1212C27.9855 17.5546 27.4809 19.153 26.8921 19.8226C26.3034 20.4922 25.4283 20.341 24.8921 20.2626C24.3558 20.1843 23.8483 20.0864 23.1912 19.9305ZM25.845 21.6181L21.3078 20.6822C20.9245 20.603 20.617 20.8139 20.4744 21.4456C20.0073 23.519 20.6774 25.9999 22.7758 25.9999C24.7629 25.9999 26.0871 23.7348 26.3034 22.5173C26.4017 21.9652 26.2609 21.7035 25.845 21.6181Z"
        fill="black" />
</svg>