<svg width="40" height="40" viewBox="0 0 40 40" fill="none" xmlns="http://www.w3.org/2000/svg">
    <path
        d="M21.3847 16.3146C21.3847 16.0726 21.2886 15.8406 21.1175 15.6695C20.9464 15.4983 20.7143 15.4022 20.4723 15.4022C20.2304 15.4022 19.9983 15.4983 19.8272 15.6695C19.6561 15.8406 19.56 16.0726 19.56 16.3146L19.5624 22.2693C19.039 22.481 18.6055 22.8682 18.3363 23.3645C18.067 23.8607 17.9788 24.4352 18.0866 24.9894C18.1945 25.5436 18.4917 26.0431 18.9274 26.4022C19.3631 26.7613 19.9102 26.9577 20.4748 26.9577C21.0394 26.9577 21.5864 26.7613 22.0221 26.4022C22.4578 26.0431 22.7551 25.5436 22.8629 24.9894C22.9708 24.4352 22.8825 23.8607 22.6133 23.3645C22.344 22.8682 21.9106 22.481 21.3871 22.2693L21.3847 16.3146ZM16.2171 14.1857V14.1833C16.236 13.0674 16.6925 12.0035 17.4884 11.221C18.2842 10.4385 19.3556 10 20.4717 10C21.5878 10 22.6593 10.4385 23.4551 11.221C24.251 12.0035 24.7075 13.0674 24.7264 14.1833V21.0783C25.3777 21.8817 25.7881 22.8531 25.9101 23.88C26.0321 24.907 25.8607 25.9475 25.4158 26.8811C24.9708 27.8146 24.2705 28.6031 23.3959 29.1551C22.5214 29.707 21.5084 30 20.4742 30C19.44 30 18.427 29.707 17.5524 29.1551C16.6778 28.6031 15.9775 27.8146 15.5326 26.8811C15.0876 25.9475 14.9162 24.907 15.0382 23.88C15.1602 22.8531 15.5707 21.8817 16.222 21.0783C16.222 18.9653 16.2122 16.2367 16.2122 14.1857H16.2171ZM18.0418 14.1833C18.0357 16.7136 18.0467 19.2463 18.0467 21.7778L17.8034 22.0406C17.3194 22.5608 16.9978 23.2111 16.8781 23.9115C16.7584 24.6119 16.8458 25.332 17.1295 25.9835C17.4132 26.635 17.881 27.1895 18.4753 27.5789C19.0697 27.9683 19.7648 28.1757 20.4754 28.1757C21.186 28.1757 21.8811 27.9683 22.4754 27.5789C23.0698 27.1895 23.5376 26.635 23.8213 25.9835C24.105 25.332 24.1924 24.6119 24.0727 23.9115C23.953 23.2111 23.6314 22.5608 23.1474 22.0406L22.9029 21.7778V14.1833C22.9029 13.5387 22.6468 12.9205 22.191 12.4647C21.7352 12.0089 21.117 11.7528 20.4723 11.7528C19.8277 11.7528 19.2095 12.0089 18.7537 12.4647C18.2979 12.9205 18.0418 13.5387 18.0418 14.1833Z"
        fill="black" />
</svg>