<svg width="40" height="40" viewBox="0 0 40 40" fill="none" xmlns="http://www.w3.org/2000/svg">
    <path
        d="M22.5539 27.7105L22.5539 27.7106C23.4001 28.5472 24.6831 29.1845 25.9718 29.4329C27.2663 29.6823 28.5082 29.5299 29.3144 28.8682C29.3815 28.8131 29.4537 28.7132 29.5197 28.5504C29.585 28.3893 29.6384 28.1813 29.6772 27.9281C29.7548 27.4216 29.7699 26.7628 29.7249 25.9993C29.635 24.4741 29.3076 22.5674 28.7956 20.7024C28.2831 18.8358 27.59 17.0269 26.7763 15.6905C26.3693 15.0222 25.9384 14.4824 25.4938 14.112C25.0499 13.7423 24.6058 13.5519 24.1642 13.5516C23.4139 13.5509 22.8881 13.8 22.508 14.1865C22.1209 14.5802 21.8678 15.1345 21.7067 15.768C21.4292 16.8595 21.4411 18.109 21.4497 19.0075C21.4511 19.1577 21.4525 19.2982 21.4524 19.4264L22.5539 27.7105ZM22.5539 27.7105C22.1618 27.323 21.887 26.765 21.7014 26.0889M22.5539 27.7105L21.7014 26.0889M17.5131 14.1827C17.1336 13.7956 16.6082 13.5456 15.858 13.545L17.5131 14.1827ZM17.5131 14.1827C17.8995 14.577 18.1517 15.1318 18.3118 15.7655M17.5131 14.1827L18.3118 15.7655M18.3118 15.7655C18.5875 16.8573 18.5735 18.1066 18.5635 19.0051M18.3118 15.7655L18.5635 19.0051M18.5635 19.0051C18.5618 19.1554 18.5603 19.296 18.5602 19.4243M18.5635 19.0051L18.5602 19.4243M18.5602 19.4243C18.5598 19.8257 18.5772 20.3012 18.596 20.8149C18.6036 21.023 18.6114 21.2373 18.6184 21.4556C18.6428 22.2175 18.6572 23.0361 18.6179 23.8364C18.5787 24.6376 18.4861 25.4118 18.2999 26.0861C18.1133 26.7619 17.8376 27.3195 17.445 27.7064C16.5972 28.5415 15.3131 29.1768 14.024 29.4232C12.7291 29.6706 11.4875 29.5163 10.6824 28.8531C10.6153 28.7979 10.5433 28.6978 10.4775 28.5349C10.4125 28.3736 10.3594 28.1655 10.321 27.9123C10.2443 27.4056 10.2302 26.7467 10.2765 25.9834C10.3689 24.4584 10.6995 22.5522 11.2146 20.6881C11.7302 18.8224 12.4263 17.0147 13.2423 15.6797C13.6503 15.012 14.0821 14.4729 14.5274 14.1033C14.9719 13.7343 15.4163 13.5446 15.858 13.545L18.5602 19.4243ZM21.7014 26.0889C21.5163 25.4143 21.4249 24.64 21.387 23.8387M21.7014 26.0889L21.387 23.8387M21.387 23.8387C21.3492 23.0384 21.3649 22.2198 21.3906 21.4578M21.387 23.8387L21.3906 21.4578M21.3906 21.4578C21.398 21.2395 21.4062 21.025 21.4142 20.8167M21.3906 21.4578L21.4142 20.8167M21.4142 20.8167C21.4338 20.3032 21.4521 19.8278 21.4524 19.4265L21.4142 20.8167Z"
        stroke="black" stroke-width="0.5" />
    <path
        d="M17.6205 27.8845C19.3622 26.168 18.8079 21.6587 18.8101 19.4246C18.8104 19.0286 18.8259 18.4982 18.8121 17.9144H11.8748C10.1567 22.2277 9.41729 28.1347 10.5234 29.0461C12.2963 30.5063 15.8448 29.6335 17.6205 27.8845Z"
        fill="black" />
    <path
        d="M22.3781 27.8884C20.6386 26.1691 21.2007 21.6609 21.2023 19.4263C21.2027 19.0299 21.188 18.4988 21.2029 17.9144H28.1348C29.8493 22.2317 30.5816 28.1512 29.4729 29.0615C27.6978 30.5184 24.1504 29.6406 22.3781 27.8884Z"
        fill="black" />
    <path fill-rule="evenodd" clip-rule="evenodd"
        d="M19.4561 10H20.568L20.5619 17.9715C20.5608 19.127 20.0399 19.7892 19.4506 20.1291C19.1154 20.3201 18.7385 20.428 18.352 20.4437H18.3376V19.3437H18.332H18.3348C18.3876 19.3406 18.4402 19.3339 18.4921 19.3239C18.6056 19.3019 18.7506 19.2596 18.8913 19.1787C19.1359 19.0379 19.4489 18.7388 19.45 17.9704L19.4561 10Z"
        fill="black" />
    <path fill-rule="evenodd" clip-rule="evenodd"
        d="M20.5711 10H19.4592L19.4531 17.9704C19.452 19.1259 19.9713 19.7892 20.56 20.1302C20.8949 20.3215 21.2716 20.4298 21.658 20.4459H21.6735L21.6746 19.8959C21.6746 19.3459 21.6757 19.3459 21.6757 19.3459H21.6808H21.678C21.673 19.3459 21.6635 19.3459 21.6496 19.3443C21.4638 19.3281 21.2838 19.2722 21.122 19.1804C20.8774 19.039 20.5644 18.7399 20.5655 17.9715L20.5711 10Z"
        fill="black" />
</svg>